<svg width="36" height="36" viewBox="0 0 36 36" fill="none" xmlns="http://www.w3.org/2000/svg">
<g clip-path="url(#clip0)">
<path fill-rule="evenodd" clip-rule="evenodd" d="M27.5814 29.3219C27.8887 29.6971 28.4432 29.7555 28.8031 29.4304C31.9971 26.5443 34 22.3959 34 17.7859C34 9.06758 26.8366 2 18 2C9.16344 2 2 9.06758 2 17.7859C2 22.3959 4.00289 26.5443 7.19695 29.4304C7.55682 29.7555 8.11127 29.6971 8.41864 29.3219V29.3219C8.72857 28.9436 8.66945 28.3873 8.30933 28.0564C5.5214 25.4947 3.77778 21.8412 3.77778 17.7859C3.77778 10.0363 10.1453 3.75399 18 3.75399C25.8547 3.75399 32.2222 10.0363 32.2222 17.7859C32.2222 21.8412 30.4786 25.4946 27.6907 28.0564C27.3306 28.3873 27.2714 28.9436 27.5814 29.3219V29.3219ZM24.7858 25.9095C25.0938 26.2855 25.6505 26.344 26.0034 26.0097C28.1928 23.935 29.5556 21.0175 29.5556 17.7859C29.5556 11.4893 24.382 6.38497 18 6.38497C11.618 6.38497 6.44444 11.4893 6.44444 17.7859C6.44444 21.0175 7.8072 23.935 9.99666 26.0097C10.3495 26.344 10.9062 26.2855 11.2143 25.9095V25.9095C11.5236 25.5319 11.4644 24.9775 11.1154 24.6362C9.32876 22.8882 8.22222 20.4645 8.22222 17.7859C8.22222 12.458 12.5999 8.13896 18 8.13896C23.4001 8.13896 27.7778 12.458 27.7778 17.7859C27.7778 20.4645 26.6712 22.8882 24.8846 24.6362C24.5356 24.9775 24.4764 25.5319 24.7858 25.9095V25.9095ZM21.9877 22.4941C22.2974 22.8722 22.8599 22.9305 23.1961 22.5757C24.384 21.3219 25.1111 19.6377 25.1111 17.7859C25.1111 13.9111 21.9274 10.7699 18 10.7699C14.0726 10.7699 10.8889 13.9111 10.8889 17.7859C10.8889 19.6377 11.616 21.3219 12.804 22.5758C13.1401 22.9305 13.7026 22.8722 14.0124 22.4941V22.4941C14.3204 22.1182 14.2602 21.5682 13.9422 21.2007C13.1468 20.2816 12.6667 19.0891 12.6667 17.7859C12.6667 14.8798 15.0545 12.5239 18 12.5239C20.9455 12.5239 23.3333 14.8798 23.3333 17.7859C23.3333 19.0891 22.8532 20.2816 22.0579 21.2007C21.7398 21.5682 21.6797 22.1181 21.9877 22.4941V22.4941Z" fill="#276BE9"/>
<path d="M17.2249 20.951C17.625 20.4601 18.375 20.4601 18.7751 20.951L27.0623 31.1182C27.5947 31.7715 27.1299 32.75 26.2871 32.75H9.71288C8.87012 32.75 8.40529 31.7715 8.93775 31.1182L17.2249 20.951Z" fill="#276BE9"/>
</g>
<defs>
<clipPath id="clip0">
<rect width="36" height="36" fill="white"/>
</clipPath>
</defs>
</svg>
