<svg width="36" height="36" viewBox="0 0 36 36" fill="none" xmlns="http://www.w3.org/2000/svg">
<path fill-rule="evenodd" clip-rule="evenodd" d="M15.2549 5.2281C14.4514 5.69766 14.1761 6.73764 14.64 7.55094L16.115 10.1369L8.89222 22.7994H5.68C4.75216 22.7994 4 23.5607 4 24.4998C4 25.4099 4.70632 26.153 5.59437 26.1981H12.3968L12.3929 26.2003H24.0806L22.1171 22.7994L12.772 22.7994L18.0549 13.5378L23.3379 22.7994H23.3376L25.3198 26.2536L25.3143 26.2643L26.96 29.1494C27.4239 29.9627 28.4514 30.2414 29.2549 29.7718C30.0585 29.3023 30.3338 28.2623 29.8698 27.449L29.1576 26.2003H30.32C31.2478 26.2003 32 25.4389 32 24.4998C32 23.5607 31.2478 22.7994 30.32 22.7994H27.2177L19.9948 10.1369L21.4698 7.55101C21.9338 6.73771 21.6585 5.69773 20.8549 5.22817C20.0514 4.75861 19.0239 5.03727 18.56 5.85057L18.0549 6.736L17.5498 5.8505C17.0859 5.0372 16.0585 4.75854 15.2549 5.2281ZM10.2881 27.1541L6.41251 27.1466L6.24 27.4491C5.77608 28.2624 6.05139 29.3023 6.85492 29.7719C7.65845 30.2415 8.68593 29.9628 9.14985 29.1495L10.2881 27.1541Z" fill="#276BE9"/>
</svg>
