<svg width="22" height="22" viewBox="0 0 22 22" fill="none" xmlns="http://www.w3.org/2000/svg">
<path fill-rule="evenodd" clip-rule="evenodd" d="M4 4H9.46667V9.46667H4V4V4ZM3 4C3 3.44772 3.44772 3 4 3H9.46667C10.019 3 10.4667 3.44772 10.4667 4V9.46667C10.4667 10.019 10.019 10.4667 9.46667 10.4667H4C3.44772 10.4667 3 10.019 3 9.46667V4ZM12.5333 4H18V9.46667H12.5333V4ZM11.5333 4C11.5333 3.44772 11.981 3 12.5333 3H18C18.5523 3 19 3.44772 19 4V9.46667C19 10.019 18.5523 10.4667 18 10.4667H12.5333C11.9811 10.4667 11.5333 10.019 11.5333 9.46667V4ZM18 12.5333H12.5333V18H18V12.5333ZM12.5333 11.5333C11.981 11.5333 11.5333 11.9811 11.5333 12.5333V18C11.5333 18.5523 11.9811 19 12.5333 19H18C18.5523 19 19 18.5523 19 18V12.5333C19 11.981 18.5523 11.5333 18 11.5333H12.5333ZM4 12.5333H9.46667V18H4V12.5333ZM3 12.5333C3 11.9811 3.44772 11.5333 4 11.5333H9.46667C10.019 11.5333 10.4667 11.981 10.4667 12.5333V18C10.4667 18.5523 10.019 19 9.46667 19H4C3.44772 19 3 18.5523 3 18V12.5333Z" fill="black"/>
</svg>
