<svg width="36" height="36" viewBox="0 0 36 36" fill="none" xmlns="http://www.w3.org/2000/svg">
<path d="M25 15.6666H23.53C23.0935 13.9761 22.1916 12.4419 20.9267 11.2384C19.6619 10.0349 18.0848 9.21028 16.3747 8.85828C14.6646 8.50628 12.8901 8.64101 11.2527 9.24715C9.61538 9.85329 8.18088 10.9065 7.11223 12.2872C6.04357 13.6679 5.38362 15.3207 5.20736 17.0577C5.03109 18.7947 5.34559 20.5464 6.1151 22.1136C6.88462 23.6808 8.0783 25.0007 9.56051 25.9234C11.0427 26.8461 12.754 27.3346 14.5 27.3333H25C26.5471 27.3333 28.0308 26.7187 29.1248 25.6247C30.2187 24.5308 30.8333 23.0471 30.8333 21.5C30.8333 19.9529 30.2187 18.4691 29.1248 17.3752C28.0308 16.2812 26.5471 15.6666 25 15.6666Z" stroke="#276BE9" stroke-width="2" stroke-linecap="round" stroke-linejoin="round"/>
</svg>
