<svg width="36" height="36" viewBox="0 0 36 36" fill="none" xmlns="http://www.w3.org/2000/svg">
<path fill-rule="evenodd" clip-rule="evenodd" d="M31 8.46155H5V8.46155V11H31V8.46155ZM31 14H5L5 27.5385L31 27.5385V14ZM5 6.46155C3.89543 6.46155 3 7.35698 3 8.46155V27.5385C3 28.643 3.89543 29.5385 5 29.5385H31C32.1046 29.5385 33 28.643 33 27.5385V8.46155C33 7.35698 32.1046 6.46155 31 6.46155H5ZM8 22C8 21.4477 8.44772 21 9 21H27C27.5523 21 28 21.4477 28 22V24C28 24.5523 27.5523 25 27 25H9C8.44772 25 8 24.5523 8 24V22Z" fill="#276BE9"/>
</svg>
