<svg width="36" height="36" viewBox="0 0 36 36" fill="none" xmlns="http://www.w3.org/2000/svg">
<path fill-rule="evenodd" clip-rule="evenodd" d="M10.6667 3H18.7161L18.7175 3.00142C18.7364 3.00048 18.7555 3 18.7747 3C19.0613 3 19.336 3.1164 19.5386 3.3236L28.6836 12.6764C28.8862 12.8836 29 13.1646 29 13.4576C29 13.4774 28.9995 13.4969 28.9986 13.5162L29 13.5176V29.25C29 31.3211 27.3584 33 25.3333 33H10.6667C8.64162 33 7 31.3211 7 29.25V6.75C7 4.67893 8.64162 3 10.6667 3ZM26.5556 15.5H19.2222C18.5472 15.5 18 14.9404 18 14.25V5.5H10.6667C9.99165 5.5 9.44444 6.05964 9.44444 6.75V29.25C9.44444 29.9404 9.99165 30.5 10.6667 30.5H25.3333C26.0083 30.5 26.5556 29.9404 26.5556 29.25V15.5ZM25.9444 13L20.4444 13V7.375L25.9444 13Z" fill="#276BE9"/>
</svg>
