<svg width="36" height="36" viewBox="0 0 36 36" fill="none" xmlns="http://www.w3.org/2000/svg">
<path d="M28.8334 18H7.16675" stroke="#3f3f3f" stroke-width="2" stroke-linecap="round" stroke-linejoin="round"/>
<path d="M10.9042 10.5359L7.16675 18V24.5C7.16675 25.0747 7.39502 25.6258 7.80135 26.0321C8.20768 26.4384 8.75878 26.6667 9.33341 26.6667H26.6667C27.2414 26.6667 27.7925 26.4384 28.1988 26.0321C28.6051 25.6258 28.8334 25.0747 28.8334 24.5V18L25.0959 10.5359C24.9165 10.1749 24.64 9.87111 24.2975 9.65868C23.9549 9.44624 23.5598 9.33359 23.1567 9.33337H12.8434C12.4403 9.33359 12.0453 9.44624 11.7027 9.65868C11.3601 9.87111 11.0836 10.1749 10.9042 10.5359V10.5359Z" stroke="#3f3f3f" stroke-width="2" stroke-linecap="round" stroke-linejoin="round"/>
<path d="M11.5 22.3334H11.5117" stroke="#3f3f3f" stroke-width="2" stroke-linecap="round" stroke-linejoin="round"/>
<path d="M15.8333 22.3334H15.8449" stroke="#3f3f3f" stroke-width="2" stroke-linecap="round" stroke-linejoin="round"/>
</svg>
