<svg width="22" height="22" viewBox="0 0 22 22" fill="none" xmlns="http://www.w3.org/2000/svg">
<path fill-rule="evenodd" clip-rule="evenodd" d="M10.1806 4.2514C6.90601 4.2514 4.2514 6.90601 4.2514 10.1806C4.2514 13.4553 6.90601 16.1099 10.1806 16.1099C11.7837 16.1099 13.2382 15.4737 14.3054 14.44C14.324 14.4147 14.3448 14.3905 14.3676 14.3676C14.3905 14.3448 14.4147 14.324 14.44 14.3054C15.4737 13.2382 16.1099 11.7837 16.1099 10.1806C16.1099 6.90601 13.4553 4.2514 10.1806 4.2514ZM15.6813 14.7965C16.7298 13.5483 17.3613 11.9382 17.3613 10.1806C17.3613 6.21488 14.1464 3 10.1806 3C6.21488 3 3 6.21488 3 10.1806C3 14.1464 6.21488 17.3613 10.1806 17.3613C11.9382 17.3613 13.5483 16.7298 14.7965 15.6813L17.9319 18.8167C18.1762 19.0611 18.5724 19.0611 18.8167 18.8167C19.0611 18.5724 19.0611 18.1762 18.8167 17.9319L15.6813 14.7965Z" fill="black"/>
</svg>
