<svg width="22" height="22" viewBox="0 0 22 22" fill="none" xmlns="http://www.w3.org/2000/svg">
<path fill-rule="evenodd" clip-rule="evenodd" d="M3.66669 10.3583C4.02107 10.3583 4.30836 10.6456 4.30836 10.9999V18.3333C4.30836 18.6493 4.43391 18.9524 4.65739 19.1759C4.88087 19.3994 5.18397 19.5249 5.50002 19.5249H16.5C16.8161 19.5249 17.1192 19.3994 17.3427 19.1759C17.5661 18.9524 17.6917 18.6493 17.6917 18.3333V10.9999C17.6917 10.6456 17.979 10.3583 18.3334 10.3583C18.6877 10.3583 18.975 10.6456 18.975 10.9999V18.3333C18.975 18.9897 18.7143 19.6192 18.2501 20.0834C17.786 20.5475 17.1564 20.8083 16.5 20.8083H5.50002C4.84361 20.8083 4.21409 20.5475 3.74994 20.0834C3.28578 19.6192 3.02502 18.9897 3.02502 18.3333V10.9999C3.02502 10.6456 3.31231 10.3583 3.66669 10.3583Z" fill="black"/>
<path fill-rule="evenodd" clip-rule="evenodd" d="M10.5463 1.37959C10.7968 1.129 11.2031 1.129 11.4537 1.37959L15.1204 5.04626C15.371 5.29684 15.371 5.70312 15.1204 5.95371C14.8698 6.2043 14.4635 6.2043 14.2129 5.95371L11 2.74077L7.78704 5.95371C7.53646 6.2043 7.13018 6.2043 6.87959 5.95371C6.629 5.70312 6.629 5.29684 6.87959 5.04626L10.5463 1.37959Z" fill="black"/>
<path fill-rule="evenodd" clip-rule="evenodd" d="M10.9999 1.19165C11.3543 1.19165 11.6416 1.47893 11.6416 1.83332V13.75C11.6416 14.1044 11.3543 14.3916 10.9999 14.3916C10.6456 14.3916 10.3583 14.1044 10.3583 13.75V1.83332C10.3583 1.47893 10.6456 1.19165 10.9999 1.19165Z" fill="black"/>
</svg>
